<?xml version="1.0" encoding="utf-8"?>
<!-- Generator: Adobe Illustrator 25.0.1, SVG Export Plug-In . SVG Version: 6.00 Build 0)  -->
<svg version="1.1" id="레이어_1" xmlns="http://www.w3.org/2000/svg" xmlns:xlink="http://www.w3.org/1999/xlink" x="0px"
	 y="0px" viewBox="0 0 48 48" style="enable-background:new 0 0 48 48;" xml:space="preserve">
<style type="text/css">
	.st0{fill:#212121;}
</style>
<path class="st0" d="M1.5,42h45c0.8,0,1.5,0.7,1.5,1.5S47.3,45,46.5,45h-45C0.7,45,0,44.3,0,43.5C0,42.7,0.7,42,1.5,42z M27,18
	c0-3.3,2.7-6,6-6h3c3.3,0,6,2.7,6,6v15c0,3.3-2.7,6-6,6h-3c-3.3,0-6-2.7-6-6V18z M36,36c1.7,0,3-1.3,3-3V18c0-1.7-1.3-3-3-3h-3
	c-1.7,0-3,1.3-3,3v15c0,1.7,1.3,3,3,3H36z M15,39c3.3,0,6-2.7,6-6V9c0-3.3-2.7-6-6-6h-3C8.7,3,6,5.7,6,9v24c0,3.3,2.7,6,6,6H15z
	 M9,9c0-1.7,1.3-3,3-3h3c1.7,0,3,1.3,3,3v24c0,1.7-1.3,3-3,3h-3c-1.7,0-3-1.3-3-3V9z"/>
</svg>
