<?xml version="1.0" encoding="utf-8"?>
<!-- Generator: Adobe Illustrator 25.0.1, SVG Export Plug-In . SVG Version: 6.00 Build 0)  -->
<svg version="1.1" id="레이어_1" xmlns="http://www.w3.org/2000/svg" xmlns:xlink="http://www.w3.org/1999/xlink" x="0px"
	 y="0px" viewBox="0 0 48 48" style="enable-background:new 0 0 48 48;" xml:space="preserve">
<style type="text/css">
	.st0{fill:#212121;}
</style>
<path class="st0" d="M6,1.5v45C6,47.3,5.3,48,4.5,48S3,47.3,3,46.5v-45C3,0.7,3.7,0,4.5,0S6,0.7,6,1.5z M30,27c3.3,0,6,2.7,6,6v3
	c0,3.3-2.7,6-6,6H15c-3.3,0-6-2.7-6-6v-3c0-3.3,2.7-6,6-6H30z M12,36c0,1.7,1.3,3,3,3h15c1.7,0,3-1.3,3-3v-3c0-1.7-1.3-3-3-3H15
	c-1.7,0-3,1.3-3,3V36z M9,15c0,3.3,2.7,6,6,6h24c3.3,0,6-2.7,6-6v-3c0-3.3-2.7-6-6-6H15c-3.3,0-6,2.7-6,6V15z M39,9c1.7,0,3,1.3,3,3
	v3c0,1.7-1.3,3-3,3H15c-1.7,0-3-1.3-3-3v-3c0-1.7,1.3-3,3-3H39z"/>
</svg>
