<?xml version="1.0" encoding="utf-8"?>
<!-- Generator: Adobe Illustrator 25.0.1, SVG Export Plug-In . SVG Version: 6.00 Build 0)  -->
<svg version="1.1" id="레이어_1" xmlns="http://www.w3.org/2000/svg" xmlns:xlink="http://www.w3.org/1999/xlink" x="0px"
	 y="0px" viewBox="0 0 48 48" style="enable-background:new 0 0 48 48;" xml:space="preserve">
<style type="text/css">
	.st0{fill:#212121;}
</style>
<path class="st0" d="M25.5,46.5V42H39c3.3,0,6-2.7,6-6v-3c0-3.3-2.7-6-6-6H25.5v-6h9c3.3,0,6-2.7,6-6v-3c0-3.3-2.7-6-6-6h-9V1.5
	C25.5,0.7,24.8,0,24,0s-1.5,0.7-1.5,1.5V6h-9c-3.3,0-6,2.7-6,6v3c0,3.3,2.7,6,6,6h9v6H9c-3.3,0-6,2.7-6,6v3c0,3.3,2.7,6,6,6h13.5
	v4.5c0,0.8,0.7,1.5,1.5,1.5S25.5,47.3,25.5,46.5z M13.5,18c-1.7,0-3-1.3-3-3v-3c0-1.7,1.3-3,3-3h9h3h9c1.7,0,3,1.3,3,3v3
	c0,1.7-1.3,3-3,3h-9h-3H13.5z M9,39c-1.7,0-3-1.3-3-3v-3c0-1.7,1.3-3,3-3h13.5h3H39c1.7,0,3,1.3,3,3v3c0,1.7-1.3,3-3,3H25.5h-3H9z"
	/>
</svg>
