<?xml version="1.0" encoding="utf-8"?>
<!-- Generator: Adobe Illustrator 25.0.1, SVG Export Plug-In . SVG Version: 6.00 Build 0)  -->
<svg version="1.1" id="레이어_1" xmlns="http://www.w3.org/2000/svg" xmlns:xlink="http://www.w3.org/1999/xlink" x="0px"
	 y="0px" viewBox="0 0 48 48" style="enable-background:new 0 0 48 48;" xml:space="preserve">
<style type="text/css">
	.st0{fill:#212121;}
</style>
<path class="st0" d="M43.5,0C44.3,0,45,0.7,45,1.5v45c0,0.8-0.7,1.5-1.5,1.5S42,47.3,42,46.5v-45C42,0.7,42.7,0,43.5,0z M33,27
	c3.3,0,6,2.7,6,6v3c0,3.3-2.7,6-6,6H18c-3.3,0-6-2.7-6-6v-3c0-3.3,2.7-6,6-6H33z M36,33c0-1.7-1.3-3-3-3H18c-1.7,0-3,1.3-3,3v3
	c0,1.7,1.3,3,3,3h15c1.7,0,3-1.3,3-3V33z M39,12c0-3.3-2.7-6-6-6H9c-3.3,0-6,2.7-6,6v3c0,3.3,2.7,6,6,6h24c3.3,0,6-2.7,6-6V12z
	 M33,9c1.7,0,3,1.3,3,3v3c0,1.7-1.3,3-3,3H9c-1.7,0-3-1.3-3-3v-3c0-1.7,1.3-3,3-3H33z"/>
</svg>
