<?xml version="1.0" encoding="utf-8"?>
<!-- Generator: Adobe Illustrator 25.0.1, SVG Export Plug-In . SVG Version: 6.00 Build 0)  -->
<svg version="1.1" id="레이어_1" xmlns="http://www.w3.org/2000/svg" xmlns:xlink="http://www.w3.org/1999/xlink" x="0px"
	 y="0px" viewBox="0 0 48 48" style="enable-background:new 0 0 48 48;" xml:space="preserve">
<style type="text/css">
	.st0{fill:#212121;}
</style>
<path class="st0" d="M46.5,6h-45C0.7,6,0,5.3,0,4.5C0,3.7,0.7,3,1.5,3h45C47.3,3,48,3.7,48,4.5S47.3,6,46.5,6z M21,30
	c0,3.3-2.7,6-6,6h-3c-3.3,0-6-2.7-6-6V15c0-3.3,2.7-6,6-6h3c3.3,0,6,2.7,6,6V30z M12,12c-1.7,0-3,1.3-3,3v15c0,1.7,1.3,3,3,3h3
	c1.7,0,3-1.3,3-3V15c0-1.7-1.3-3-3-3H12z M33,9c-3.3,0-6,2.7-6,6v24c0,3.3,2.7,6,6,6h3c3.3,0,6-2.7,6-6V15c0-3.3-2.7-6-6-6H33z
	 M39,39c0,1.7-1.3,3-3,3h-3c-1.7,0-3-1.3-3-3V15c0-1.7,1.3-3,3-3h3c1.7,0,3,1.3,3,3V39z"/>
</svg>
