<?xml version="1.0" encoding="utf-8"?>
<!-- Generator: Adobe Illustrator 25.0.1, SVG Export Plug-In . SVG Version: 6.00 Build 0)  -->
<svg version="1.1" id="레이어_1" xmlns="http://www.w3.org/2000/svg" xmlns:xlink="http://www.w3.org/1999/xlink" x="0px"
	 y="0px" viewBox="0 0 48 48" style="enable-background:new 0 0 48 48;" xml:space="preserve">
<style type="text/css">
	.st0{fill:#212121;}
</style>
<path class="st0" d="M0,9c0-5,4-9,9-9h30c5,0,9,4,9,9v30c0,5-4,9-9,9H9c-5,0-9-4-9-9V9z M9,3C5.7,3,3,5.7,3,9v30c0,3.3,2.7,6,6,6h30
	c3.3,0,6-2.7,6-6V9c0-3.3-2.7-6-6-6H9z"/>
<path class="st0" d="M15.9,14.1c0-1.2,1-2.1,2.1-2.1h6c4.1,0,6.9,3.4,6.9,6.9c0,1.5-0.5,3-1.4,4.2c1.6,1.2,2.7,3.1,2.7,5.7
	c0,4.9-4.2,7.3-7.3,7.3H18c-1.2,0-2.1-1-2.1-2.1V14.1z M20.1,25.7v6h4.7c1.4,0,3-1.1,3-3c0-1.9-1.6-3-3-3H20.1z M20.1,21.4H24
	c1.5,0,2.6-1.2,2.6-2.6c0-1.3-1.1-2.6-2.6-2.6h-3.9V21.4z"/>
</svg>
