<?xml version="1.0" encoding="utf-8"?>
<!-- Generator: Adobe Illustrator 25.0.1, SVG Export Plug-In . SVG Version: 6.00 Build 0)  -->
<svg version="1.1" id="레이어_1" xmlns="http://www.w3.org/2000/svg" xmlns:xlink="http://www.w3.org/1999/xlink" x="0px"
	 y="0px" viewBox="0 0 48 48" style="enable-background:new 0 0 48 48;" xml:space="preserve">
<style type="text/css">
	.st0{fill:#212121;}
</style>
<path class="st0" d="M0,9c0-5,4-9,9-9h30c5,0,9,4,9,9v30c0,5-4,9-9,9H9c-5,0-9-4-9-9V9z M9,3C5.7,3,3,5.7,3,9v30c0,3.3,2.7,6,6,6h30
	c3.3,0,6-2.7,6-6V9c0-3.3-2.7-6-6-6H9z"/>
<path class="st0" d="M21.5,26.1l-3.5-3.5c-0.6-0.6-1.5-0.6-2.1,0l0,0c-0.6,0.6-0.6,1.5,0,2.1l3.9,3.9l1.4,1.4c0.4,0.4,1,0.4,1.4,0
	l1.4-1.4l8.3-8.3c0.6-0.6,0.6-1.5,0-2.1l0,0c-0.6-0.6-1.5-0.6-2.1,0l-7.9,7.9C22,26.3,21.7,26.3,21.5,26.1z"/>
</svg>
