<?xml version="1.0" encoding="utf-8"?>
<!-- Generator: Adobe Illustrator 25.0.1, SVG Export Plug-In . SVG Version: 6.00 Build 0)  -->
<svg version="1.1" id="레이어_1" xmlns="http://www.w3.org/2000/svg" xmlns:xlink="http://www.w3.org/1999/xlink" x="0px"
	 y="0px" viewBox="0 0 48 48" style="enable-background:new 0 0 48 48;" xml:space="preserve">
<style type="text/css">
	.st0{fill:#FFFFFF;}
	.st1{fill:#D1D1D1;}
</style>
<circle class="st0" cx="24" cy="24" r="24"/>
<g>
	<polygon class="st1" points="14,13.4 15.2,13.4 15.2,16.5 15.2,19 15.2,34.6 14,34.6 14,36.5 19,36.5 19,34.6 17.8,34.6 17.8,19 
		17.8,16.5 17.8,13.4 19,13.4 19,11.5 14,11.5 	"/>
	<polygon class="st1" points="11.5,19 13.4,19 13.4,16.5 9,16.5 9,31.5 13.4,31.5 13.4,29 11.5,29 	"/>
	<polygon class="st1" points="19.6,16.5 19.6,19 36.5,19 36.5,29 19.6,29 19.6,31.5 39,31.5 39,16.5 	"/>
</g>
</svg>
