<?xml version="1.0" encoding="utf-8"?>
<!-- Generator: Adobe Illustrator 25.0.1, SVG Export Plug-In . SVG Version: 6.00 Build 0)  -->
<svg version="1.1" id="레이어_1" xmlns="http://www.w3.org/2000/svg" xmlns:xlink="http://www.w3.org/1999/xlink" x="0px"
	 y="0px" viewBox="0 0 48 48" style="enable-background:new 0 0 48 48;" xml:space="preserve">
<style type="text/css">
	.st0{fill:#212121;}
</style>
<path class="st0" d="M37.7,15.4c0,2.8-2.3,5.1-5.1,5.1c-2.8,0-5.1-2.3-5.1-5.1s2.3-5.1,5.1-5.1C35.4,10.3,37.7,12.6,37.7,15.4z
	 M34.3,15.4c0-0.9-0.8-1.7-1.7-1.7c-0.9,0-1.7,0.8-1.7,1.7c0,0.9,0.8,1.7,1.7,1.7C33.5,17.1,34.3,16.4,34.3,15.4z M0,10.3
	C0,4.6,4.6,0,10.3,0h27.4C43.4,0,48,4.6,48,10.3v27.4C48,43.4,43.4,48,37.7,48H10.3C4.6,48,0,43.4,0,37.7V10.3z M10.3,3.4
	c-3.8,0-6.9,3.1-6.9,6.9v27.4c0,1.3,0.3,2.5,1,3.5l16-15.7c2-2,5.2-2,7.2,0l16,15.7c0.6-1,1-2.2,1-3.5V10.3c0-3.8-3.1-6.9-6.9-6.9
	H10.3z M10.3,44.6h27.4c1.3,0,2.5-0.3,3.5-0.9l-16-15.7c-0.7-0.7-1.7-0.7-2.4,0l-16,15.7C7.8,44.2,9,44.6,10.3,44.6z"/>
</svg>
