<?xml version="1.0" encoding="utf-8"?>
<!-- Generator: Adobe Illustrator 25.0.1, SVG Export Plug-In . SVG Version: 6.00 Build 0)  -->
<svg version="1.1" id="레이어_1" xmlns="http://www.w3.org/2000/svg" xmlns:xlink="http://www.w3.org/1999/xlink" x="0px"
	 y="0px" viewBox="0 0 48 48" style="enable-background:new 0 0 48 48;" xml:space="preserve">
<style type="text/css">
	.st0{fill:#FFFFFF;}
</style>
<circle class="st0" cx="24" cy="24" r="24"/>
<path d="M24,3.6c12.4,0,20.4,8,20.4,20.4s-8,20.4-20.4,20.4S3.6,36.4,3.6,24S11.6,3.6,24,3.6 M24,0C10.7,0,0,10.7,0,24
	s10.7,24,24,24s24-10.7,24-24S37.3,0,24,0L24,0z"/>
<g>
	<path d="M36.5,14.9L30.6,9H11.5v30h25V14.9z M14.5,35.9L14.5,35.9V12H29v4.5h4.4V36L14.5,35.9L14.5,35.9z"/>
	<path d="M24,19.9c-3.4,0-6.2,2.8-6.2,6.2s2.8,6.2,6.2,6.2s6.2-2.8,6.2-6.2S27.4,19.9,24,19.9z M27.6,27.1h-2.8v2.8H23v-2.8h-2.8
		v-1.8H23v-2.8h1.8v2.8h2.8V27.1z"/>
</g>
</svg>
