<?xml version="1.0" encoding="utf-8"?>
<!-- Generator: Adobe Illustrator 25.0.1, SVG Export Plug-In . SVG Version: 6.00 Build 0)  -->
<svg version="1.1" id="레이어_1" xmlns="http://www.w3.org/2000/svg" xmlns:xlink="http://www.w3.org/1999/xlink" x="0px"
	 y="0px" viewBox="0 0 48 48" style="enable-background:new 0 0 48 48;" xml:space="preserve">
<style type="text/css">
	.st0{fill:#212121;}
</style>
<path class="st0" d="M0,9c0-5,4-9,9-9h30c5,0,9,4,9,9v30c0,5-4,9-9,9H9c-5,0-9-4-9-9V9z M9,3C5.7,3,3,5.7,3,9v30c0,3.3,2.7,6,6,6h30
	c3.3,0,6-2.7,6-6V9c0-3.3-2.7-6-6-6H9z"/>
<g>
	<path class="st0" d="M15.5,12.6h2.8v0.9c0,0.5,0.4,0.9,0.9,0.9s0.9-0.4,0.9-0.9v-1.8c0-0.5-0.4-0.9-0.9-0.9H9.9
		c-0.5,0-0.9,0.4-0.9,0.9v1.8c0,0.5,0.4,0.9,0.9,0.9s0.9-0.4,0.9-0.9v-0.9h2.8v11.1h-0.9c-0.5,0-0.9,0.4-0.9,0.9
		c0,0.5,0.4,0.9,0.9,0.9h3.7c0.5,0,0.9-0.4,0.9-0.9c0-0.5-0.4-0.9-0.9-0.9h-0.9V12.6z"/>
	<path class="st0" d="M37.5,13.7h-10c-0.8,0-1.5-0.7-1.5-1.5v0c0-0.8,0.7-1.5,1.5-1.5h10c0.8,0,1.5,0.7,1.5,1.5v0
		C39,13,38.3,13.7,37.5,13.7z"/>
	<path class="st0" d="M37.5,25.5h-13c-0.8,0-1.5-0.7-1.5-1.5v0c0-0.8,0.7-1.5,1.5-1.5h13c0.8,0,1.5,0.7,1.5,1.5v0
		C39,24.8,38.3,25.5,37.5,25.5z"/>
	<path class="st0" d="M37.5,37.3h-27c-0.8,0-1.5-0.7-1.5-1.5v0c0-0.8,0.7-1.5,1.5-1.5h27c0.8,0,1.5,0.7,1.5,1.5v0
		C39,36.6,38.3,37.3,37.5,37.3z"/>
</g>
</svg>
