<?xml version="1.0" encoding="utf-8"?>
<!-- Generator: Adobe Illustrator 25.0.1, SVG Export Plug-In . SVG Version: 6.00 Build 0)  -->
<svg version="1.1" id="레이어_1" xmlns="http://www.w3.org/2000/svg" xmlns:xlink="http://www.w3.org/1999/xlink" x="0px"
	 y="0px" viewBox="0 0 48 48" style="enable-background:new 0 0 48 48;" xml:space="preserve">
<style type="text/css">
	.st0{fill:#BDBDBD;}
</style>
<g>
	<ellipse class="st0" cx="24" cy="24" rx="4.2" ry="4.1"/>
	<path class="st0" d="M24,0C10.7,0,0,10.7,0,24s10.7,24,24,24s24-10.7,24-24S37.3,0,24,0z M34.8,24c0,0.5-0.1,0.9-0.1,1.4l3,2.3
		c0.3,0.2,0.4,0.6,0.2,0.9L35,33.4c-0.1,0.2-0.4,0.3-0.6,0.3c-0.1,0-0.2,0-0.3-0.1l-3.6-1.4c-0.8,0.6-1.6,1-2.5,1.4l-0.5,3.7
		c-0.1,0.3-0.4,0.6-0.7,0.6h-5.8c-0.4,0-0.6-0.2-0.7-0.6l-0.5-3.7c-0.9-0.3-1.7-0.8-2.5-1.4l-3.6,1.4c-0.1,0.1-0.2,0.1-0.2,0.1
		c-0.2,0-0.5-0.1-0.6-0.3l-2.9-4.8c-0.2-0.3-0.1-0.6,0.2-0.9l3-2.3c-0.1-0.5-0.1-0.9-0.1-1.4s0.1-0.9,0.1-1.4l-3-2.3
		c-0.3-0.2-0.4-0.6-0.2-0.9l2.9-4.8c0.1-0.2,0.4-0.3,0.6-0.3c0.1,0,0.2,0,0.3,0.1l3.6,1.4c0.7-0.5,1.5-1,2.4-1.3l0.5-3.7
		c0.1-0.3,0.4-0.6,0.7-0.6h5.8c0.4,0,0.6,0.2,0.7,0.6l0.6,3.7c0.9,0.3,1.7,0.8,2.5,1.4l3.6-1.4c0.1-0.1,0.2-0.1,0.2-0.1
		c0.2,0,0.5,0.1,0.6,0.3l2.9,4.8c0.2,0.3,0.1,0.6-0.2,0.9l-3,2.3C34.7,23,34.8,23.4,34.8,24z"/>
</g>
</svg>
