<?xml version="1.0" encoding="utf-8"?>
<!-- Generator: Adobe Illustrator 25.0.1, SVG Export Plug-In . SVG Version: 6.00 Build 0)  -->
<svg version="1.1" id="레이어_1" xmlns="http://www.w3.org/2000/svg" xmlns:xlink="http://www.w3.org/1999/xlink" x="0px"
	 y="0px" viewBox="0 0 48 48" style="enable-background:new 0 0 48 48;" xml:space="preserve">
<g>
	<path d="M14.6,38.5l25.9-26c2.9-2.9,2.9-7.5,0-10.4c-2.9-2.9-7.5-2.9-10.4,0l-25.9,26c-0.2,0.2-0.3,0.4-0.4,0.6L0.1,40
		c-0.2,0.5,0,1.1,0.3,1.5c0.4,0.4,0.9,0.6,1.5,0.4l12-3C14.1,38.9,14.4,38.7,14.6,38.5z M3.8,38.3L6.6,30L32.2,4.4
		c1.7-1.7,4.4-1.7,6.1,0c1.7,1.7,1.7,4.5,0,6.1L12.7,36.1L3.8,38.3z"/>
	<path d="M47.9,40.1c-0.2-0.8-1.1-1.3-1.9-1l0,0l0,0l0,0h-0.1c-0.1,0-0.1,0-0.2,0.1c-0.2,0.1-0.4,0.2-0.7,0.3
		c-0.6,0.3-1.4,0.7-2.4,1.3c-0.4,0.2-0.7,0.5-1,0.7c-0.6,0.4-1.1,0.8-1.8,1.2c-1,0.6-1.8,0.9-2.4,0.9c-0.2,0-0.4-0.1-0.8-0.5
		c-0.3-0.4-0.6-0.9-0.8-1.5c-0.7-2.4-1.5-4.7-4-5.5c-1.8-0.6-3.5,0.1-4.9,0.9c-1.3,0.8-2.7,1.9-4,3l-0.4,0.3c-1.5,1.2-3,2.4-4.6,3.3
		C16.5,44.5,15,45,13.5,45c-2.2,0-4.2-0.6-5.8-1.4l-4,1c0.1,0,0.1,0.1,0.2,0.1C6,46.3,9.3,48,13.5,48c2.2,0,4.3-0.8,6.1-1.8
		c1.8-1,3.5-2.4,5-3.6l0.4-0.3c1.4-1.1,2.6-2.1,3.7-2.8c1.2-0.7,1.9-0.8,2.4-0.6c0.8,0.3,1.2,0.9,2,3.5c0.3,0.9,0.7,1.8,1.4,2.6
		c0.7,0.8,1.7,1.5,3,1.5c1.4,0,2.8-0.7,3.9-1.3c0.7-0.4,1.5-1,2.1-1.4c0.3-0.2,0.6-0.4,0.8-0.5c0.8-0.5,1.5-0.9,1.9-1.1
		c0.2-0.1,0.4-0.2,0.5-0.2c0.1,0,0.1,0,0.1,0l0,0C47.7,41.7,48.2,40.9,47.9,40.1z"/>
</g>
</svg>
