<?xml version="1.0" encoding="utf-8"?>
<!-- Generator: Adobe Illustrator 25.0.1, SVG Export Plug-In . SVG Version: 6.00 Build 0)  -->
<svg version="1.1" id="레이어_1" xmlns="http://www.w3.org/2000/svg" xmlns:xlink="http://www.w3.org/1999/xlink" x="0px"
	 y="0px" viewBox="0 0 48 48" style="enable-background:new 0 0 48 48;" xml:space="preserve">
<style type="text/css">
	.st0{fill:#212121;}
</style>
<path class="st0" d="M6,9c0-0.8,0.7-1.5,1.5-1.5h33C41.3,7.5,42,8.2,42,9s-0.7,1.5-1.5,1.5h-33C6.7,10.5,6,9.8,6,9z"/>
<path class="st0" d="M0,24c0-0.8,0.7-1.5,1.5-1.5h45c0.8,0,1.5,0.7,1.5,1.5s-0.7,1.5-1.5,1.5h-45C0.7,25.5,0,24.8,0,24z"/>
<path class="st0" d="M12,37.5c-0.8,0-1.5,0.7-1.5,1.5s0.7,1.5,1.5,1.5h24c0.8,0,1.5-0.7,1.5-1.5s-0.7-1.5-1.5-1.5H12z"/>
</svg>
