<?xml version="1.0" encoding="utf-8"?>
<!-- Generator: Adobe Illustrator 25.0.1, SVG Export Plug-In . SVG Version: 6.00 Build 0)  -->
<svg version="1.1" id="레이어_1" xmlns="http://www.w3.org/2000/svg" xmlns:xlink="http://www.w3.org/1999/xlink" x="0px"
	 y="0px" viewBox="0 0 48 48" style="enable-background:new 0 0 48 48;" xml:space="preserve">
<path d="M27.4,17.1c0.9,0,1.7,0.8,1.7,1.7c0,0.9-0.8,1.7-1.7,1.7H10.3c-0.9,0-1.7-0.8-1.7-1.7c0-0.9,0.8-1.7,1.7-1.7H27.4z"/>
<path d="M37.7,18.9C37.7,8.4,29.3,0,18.9,0C8.4,0,0,8.4,0,18.9c0,10.4,8.4,18.9,18.9,18.9c4.6,0,8.8-1.6,12.1-4.4l14.1,14.1l0.2,0.2
	c0.7,0.5,1.6,0.4,2.2-0.2c0.7-0.7,0.7-1.8,0-2.4L33.3,30.9C36.1,27.7,37.7,23.4,37.7,18.9z M3.4,18.9c0-8.5,6.9-15.4,15.4-15.4
	s15.4,6.9,15.4,15.4s-6.9,15.4-15.4,15.4S3.4,27.4,3.4,18.9z"/>
</svg>
