<?xml version="1.0" encoding="utf-8"?>
<!-- Generator: Adobe Illustrator 25.0.1, SVG Export Plug-In . SVG Version: 6.00 Build 0)  -->
<svg version="1.1" id="레이어_1" xmlns="http://www.w3.org/2000/svg" xmlns:xlink="http://www.w3.org/1999/xlink" x="0px"
	 y="0px" viewBox="0 0 48 48" style="enable-background:new 0 0 48 48;" xml:space="preserve">
<style type="text/css">
	.st0{fill:#212121;}
</style>
<path class="st0" d="M46.5,22.5H42V9c0-3.3-2.7-6-6-6h-3c-3.3,0-6,2.7-6,6v13.5h-6v-9c0-3.3-2.7-6-6-6h-3c-3.3,0-6,2.7-6,6v9H1.5
	C0.7,22.5,0,23.2,0,24s0.7,1.5,1.5,1.5H6v9c0,3.3,2.7,6,6,6h3c3.3,0,6-2.7,6-6v-9h6V39c0,3.3,2.7,6,6,6h3c3.3,0,6-2.7,6-6V25.5h4.5
	c0.8,0,1.5-0.7,1.5-1.5S47.3,22.5,46.5,22.5z M18,34.5c0,1.7-1.3,3-3,3h-3c-1.7,0-3-1.3-3-3v-9v-3v-9c0-1.7,1.3-3,3-3h3
	c1.7,0,3,1.3,3,3v9v3V34.5z M39,39c0,1.7-1.3,3-3,3h-3c-1.7,0-3-1.3-3-3V25.5v-3V9c0-1.7,1.3-3,3-3h3c1.7,0,3,1.3,3,3v13.5v3V39z"/>
</svg>
