<?xml version="1.0" encoding="utf-8"?>
<!-- Generator: Adobe Illustrator 25.0.1, SVG Export Plug-In . SVG Version: 6.00 Build 0)  -->
<svg version="1.1" id="레이어_1" xmlns="http://www.w3.org/2000/svg" xmlns:xlink="http://www.w3.org/1999/xlink" x="0px"
	 y="0px" viewBox="0 0 48 48" style="enable-background:new 0 0 48 48;" xml:space="preserve">
<path d="M13.7,27.4c1.9,0,3.4-1.5,3.4-3.4s-1.5-3.4-3.4-3.4s-3.4,1.5-3.4,3.4C10.3,25.9,11.8,27.4,13.7,27.4z M17.1,34.3
	c0,1.9-1.5,3.4-3.4,3.4s-3.4-1.5-3.4-3.4s1.5-3.4,3.4-3.4S17.1,32.4,17.1,34.3z M24,27.4c1.9,0,3.4-1.5,3.4-3.4s-1.5-3.4-3.4-3.4
	c-1.9,0-3.4,1.5-3.4,3.4S22.1,27.4,24,27.4z M27.3,34.3c0,1.9-1.5,3.4-3.4,3.4c-1.9,0-3.4-1.5-3.4-3.4s1.5-3.4,3.4-3.4
	C25.8,30.9,27.3,32.4,27.3,34.3z M34.2,27.4c1.9,0,3.4-1.5,3.4-3.4s-1.5-3.4-3.4-3.4c-1.9,0-3.4,1.5-3.4,3.4S32.3,27.4,34.2,27.4z
	 M47.9,8.6c0-4.8-3.8-8.6-8.6-8.6H8.6C3.8,0,0,3.8,0,8.6v30.9C0,44.2,3.8,48,8.6,48h30.8c4.7,0,8.6-3.8,8.6-8.6L47.9,8.6L47.9,8.6z
	 M3.4,13.7h41v25.7c0,2.8-2.3,5.1-5.1,5.1H8.6c-2.8,0-5.1-2.3-5.1-5.1L3.4,13.7L3.4,13.7z M8.6,3.4h30.8c2.8,0,5.1,2.3,5.1,5.1v1.7
	H3.4V8.6C3.4,5.7,5.7,3.4,8.6,3.4z"/>
</svg>
