<?xml version="1.0" encoding="utf-8"?>
<!-- Generator: Adobe Illustrator 25.0.1, SVG Export Plug-In . SVG Version: 6.00 Build 0)  -->
<svg version="1.1" id="레이어_1" xmlns="http://www.w3.org/2000/svg" xmlns:xlink="http://www.w3.org/1999/xlink" x="0px"
	 y="0px" viewBox="0 0 48 48" style="enable-background:new 0 0 48 48;" xml:space="preserve">
<style type="text/css">
	.st0{fill:#FFFFFF;}
</style>
<circle class="st0" cx="24" cy="24" r="24"/>
<path d="M24,3.6c12.4,0,20.4,8,20.4,20.4s-8,20.4-20.4,20.4S3.6,36.4,3.6,24S11.6,3.6,24,3.6 M24,0C10.7,0,0,10.7,0,24
	s10.7,24,24,24s24-10.7,24-24S37.3,0,24,0L24,0z"/>
<g>
	<polygon points="14,13.4 15.2,13.4 15.2,16.5 15.2,19 15.2,34.6 14,34.6 14,36.5 19,36.5 19,34.6 17.8,34.6 17.8,19 17.8,16.5 
		17.8,13.4 19,13.4 19,11.5 14,11.5 	"/>
	<polygon points="11.5,19 13.4,19 13.4,16.5 9,16.5 9,31.5 13.4,31.5 13.4,29 11.5,29 	"/>
	<polygon points="19.6,16.5 19.6,19 36.5,19 36.5,29 19.6,29 19.6,31.5 39,31.5 39,16.5 	"/>
</g>
</svg>
