<?xml version="1.0" encoding="utf-8"?>
<!-- Generator: Adobe Illustrator 25.0.1, SVG Export Plug-In . SVG Version: 6.00 Build 0)  -->
<svg version="1.1" id="레이어_1" xmlns="http://www.w3.org/2000/svg" xmlns:xlink="http://www.w3.org/1999/xlink" x="0px"
	 y="0px" viewBox="0 0 48 48" style="enable-background:new 0 0 48 48;" xml:space="preserve">
<style type="text/css">
	.st0{fill:#212121;}
</style>
<path class="st0" d="M48,24c0,13.3-10.7,24-24,24C10.7,48,0,37.3,0,24C0,10.7,10.7,0,24,0C37.3,0,48,10.7,48,24z M24,45
	c11.6,0,21-9.4,21-21c0-11.6-9.4-21-21-21C12.4,3,3,12.4,3,24C3,35.6,12.4,45,24,45z"/>
<g>
	<path class="st0" d="M22.4,26.1l8.3,8.3c0.6,0.6,1.5,0.6,2.1,0v0c0.6-0.6,0.6-1.5,0-2.1l-7.9-7.9c-0.2-0.2-0.2-0.5,0-0.7l7.9-7.9
		c0.6-0.6,0.6-1.5,0-2.1l0,0c-0.6-0.6-1.5-0.6-2.1,0l-8.3,8.3L21,23.3c-0.4,0.4-0.4,1,0,1.4L22.4,26.1z"/>
	<path class="st0" d="M16.2,34.8L16.2,34.8c-0.8,0-1.5-0.7-1.5-1.5V14.7c0-0.8,0.7-1.5,1.5-1.5h0c0.8,0,1.5,0.7,1.5,1.5v18.6
		C17.7,34.1,17.1,34.8,16.2,34.8z"/>
</g>
</svg>
