<?xml version="1.0" encoding="utf-8"?>
<!-- Generator: Adobe Illustrator 25.0.1, SVG Export Plug-In . SVG Version: 6.00 Build 0)  -->
<svg version="1.1" id="레이어_1" xmlns="http://www.w3.org/2000/svg" xmlns:xlink="http://www.w3.org/1999/xlink" x="0px"
	 y="0px" viewBox="0 0 48 48" style="enable-background:new 0 0 48 48;" xml:space="preserve">
<g>
	<path d="M36.1,3c1.7,0,3,1.3,3,3v39l-12.3-6.2c-0.8-0.4-1.8-0.6-2.7-0.6s-1.9,0.2-2.7,0.6L9.1,45V6c0-1.7,1.3-3,3-3H36.1 M36.1,0
		h-24c-3.3,0-6,2.7-6,6v39c0,1.7,1.4,3,3,3c0.4,0,0.9-0.1,1.3-0.3l12.3-6.2c0.4-0.2,0.9-0.3,1.3-0.3s0.9,0.1,1.3,0.3l12.3,6.2
		c0.4,0.2,0.9,0.3,1.3,0.3c1.6,0,3-1.3,3-3V6C42.1,2.7,39.4,0,36.1,0L36.1,0z"/>
</g>
</svg>
