<?xml version="1.0" encoding="utf-8"?>
<!-- Generator: Adobe Illustrator 25.0.1, SVG Export Plug-In . SVG Version: 6.00 Build 0)  -->
<svg version="1.1" id="레이어_1" xmlns="http://www.w3.org/2000/svg" xmlns:xlink="http://www.w3.org/1999/xlink" x="0px"
	 y="0px" viewBox="0 0 48 48" style="enable-background:new 0 0 48 48;" xml:space="preserve">
<style type="text/css">
	.st0{fill:#212121;}
</style>
<path class="st0" d="M0,9c0-5,4-9,9-9h30c5,0,9,4,9,9v30c0,5-4,9-9,9H9c-5,0-9-4-9-9V9z M9,3C5.7,3,3,5.7,3,9v30c0,3.3,2.7,6,6,6h30
	c3.3,0,6-2.7,6-6V9c0-3.3-2.7-6-6-6H9z"/>
<path class="st0" d="M34.5,19.2c-0.3,0.3-0.5,0.7-0.6,0.9c-0.2,0.7-0.9,1.1-1.6,0.9c-0.7-0.2-1.1-0.9-0.9-1.6
	c0.2-0.6,0.6-1.5,1.3-2.2c0.8-0.7,1.9-1.2,3.4-1.2c3,0,4.8,2.3,4.8,4.4c0,0.8-0.2,2.1-1,3.1c-0.1,0.1-0.2,0.3-0.4,0.4
	c0.1,0.1,0.2,0.2,0.3,0.3c0.1,0.1,0.3,0.3,0.4,0.5c0.5,0.7,0.7,1.5,0.7,2.4c0,1.7-0.6,3-1.6,3.9c-1,0.8-2.2,1.1-3.3,1.1
	c-1,0-2-0.2-2.9-0.7c-0.9-0.6-1.5-1.5-1.9-2.6c-0.2-0.7,0.1-1.5,0.8-1.7c0.7-0.2,1.4,0.2,1.6,0.8c0.1,0.4,0.2,0.6,0.4,0.8l0,0.1
	c0,0,0.1,0.1,0.1,0.1l0,0l0,0c0.1,0.1,0.1,0.1,0.2,0.2c0.1,0.1,0.2,0.1,0.4,0.2c0.3,0.1,0.6,0.2,1.1,0.2c0.7,0,1.2-0.2,1.6-0.5
	c0.3-0.3,0.6-0.8,0.6-1.8c0-0.4-0.1-0.7-0.2-0.9c-0.1-0.2-0.3-0.3-0.6-0.5c-0.6-0.3-1.4-0.4-2-0.4c-0.7,0-1.3-0.6-1.3-1.3
	c0-0.7,0.6-1.3,1.3-1.3c1.5,0,2.1-0.5,2.4-0.8c0.3-0.4,0.4-1,0.4-1.5c0-0.6-0.6-1.7-2.2-1.7C35.3,18.7,34.8,18.9,34.5,19.2z M21,21
	c0-1.2,1-2.3,2.2-2.3c0.9,0,1.6,0.4,2,1c0.3,0.5,0.5,1.3-0.2,2.5c-0.3,0.6-0.8,1-1.4,1.5c-0.3,0.3-0.6,0.5-1,0.8l-0.1,0.1
	c-0.3,0.2-0.6,0.5-0.9,0.7c-1.5,1.1-3.1,2.7-3.1,5.5c0,0.7,0.6,1.3,1.3,1.3l0.1,0l0.1,0h6.9c0.7,0,1.3-0.6,1.3-1.3
	c0-0.7-0.6-1.3-1.3-1.3h-5.5c0.3-0.8,0.9-1.3,1.8-2c0.3-0.2,0.5-0.4,0.8-0.6l0,0l0.2-0.1c0.4-0.3,0.7-0.5,1.1-0.8
	c0.7-0.6,1.5-1.3,2-2.3c1.1-1.9,1.1-3.8,0.1-5.3c-0.9-1.4-2.5-2.2-4.1-2.2c-2.8,0-4.8,2.5-4.8,5c0,0.7,0.6,1.3,1.3,1.3
	C20.4,22.3,21,21.7,21,21z M9,23.3c0.5-0.4,1.1-0.8,1.5-1.3v8.7c0,0.7,0.6,1.3,1.3,1.3c0.7,0,1.3-0.6,1.3-1.3V17.3
	c0-0.7-0.5-1.3-1.2-1.3c-0.6-0.1-1.3,0.4-1.4,1c-0.3,1.2-1.4,3-3,4c-0.6,0.4-0.8,1.2-0.4,1.8C7.6,23.5,8.4,23.7,9,23.3z"/>
</svg>
