<?xml version="1.0" encoding="utf-8"?>
<!-- Generator: Adobe Illustrator 25.0.1, SVG Export Plug-In . SVG Version: 6.00 Build 0)  -->
<svg version="1.1" id="레이어_1" xmlns="http://www.w3.org/2000/svg" xmlns:xlink="http://www.w3.org/1999/xlink" x="0px"
	 y="0px" viewBox="0 0 48 48" style="enable-background:new 0 0 48 48;" xml:space="preserve">
<style type="text/css">
	.st0{fill:#212121;}
</style>
<path class="st0" d="M25.5,15H30v1.5c0,0.8,0.7,1.5,1.5,1.5s1.5-0.7,1.5-1.5v-3c0-0.8-0.7-1.5-1.5-1.5h-15c-0.8,0-1.5,0.7-1.5,1.5v3
	c0,0.8,0.7,1.5,1.5,1.5s1.5-0.7,1.5-1.5V15h4.5v18H21c-0.8,0-1.5,0.7-1.5,1.5S20.2,36,21,36h6c0.8,0,1.5-0.7,1.5-1.5S27.8,33,27,33
	h-1.5V15z"/>
<path class="st0" d="M0,9c0-5,4-9,9-9h30c5,0,9,4,9,9v30c0,5-4,9-9,9H9c-5,0-9-4-9-9V9z M9,3C5.7,3,3,5.7,3,9v30c0,3.3,2.7,6,6,6h30
	c3.3,0,6-2.7,6-6V9c0-3.3-2.7-6-6-6H9z"/>
</svg>
