<svg width="16" height="16" viewBox="0 0 16 16" fill="none" xmlns="http://www.w3.org/2000/svg">
<path d="M8 16C6.41775 16 4.87103 15.5308 3.55544 14.6518C2.23985 13.7727 1.21447 12.5233 0.608967 11.0615C0.00346625 9.59966 -0.15496 7.99113 0.153721 6.43928C0.462403 4.88743 1.22433 3.46197 2.34315 2.34315C3.46197 1.22433 4.88743 0.462403 6.43928 0.153721C7.99113 -0.15496 9.59966 0.00346625 11.0615 0.608967C12.5233 1.21447 13.7727 2.23985 14.6518 3.55544C15.5308 4.87103 16 6.41775 16 8C16 10.1217 15.1571 12.1566 13.6569 13.6569C12.1566 15.1571 10.1217 16 8 16ZM8 0.941004C6.60391 0.941201 5.23922 1.35537 4.07851 2.13115C2.91779 2.90692 2.01318 4.00945 1.47905 5.29933C0.944925 6.58922 0.805276 8.00851 1.07776 9.37776C1.35025 10.747 2.02263 12.0047 3.00989 12.9918C3.99715 13.9789 5.25494 14.6511 6.62423 14.9234C7.99351 15.1957 9.41279 15.0559 10.7026 14.5216C11.9924 13.9873 13.0948 13.0825 13.8704 11.9217C14.646 10.7608 15.06 9.3961 15.06 8C15.06 7.07292 14.8774 6.15491 14.5226 5.29841C14.1678 4.44191 13.6477 3.66369 12.9921 3.00818C12.3365 2.35268 11.5582 1.83274 10.7017 1.47805C9.84512 1.12336 8.92709 0.940872 8 0.941004Z" fill="#B2B2B2"/>
<path d="M8.70387 6.11598C8.70993 6.0003 8.69106 5.88467 8.64851 5.77692C8.60597 5.66918 8.54076 5.57184 8.4573 5.49151C8.37384 5.41118 8.27408 5.34974 8.16479 5.31134C8.0555 5.27294 7.93923 5.2585 7.82387 5.26898C7.60263 5.28084 7.38626 5.33851 7.18847 5.43835C6.99069 5.53819 6.81579 5.67802 6.67487 5.84898L5.83887 5.08098C6.10432 4.76117 6.43617 4.50295 6.81141 4.32422C7.18664 4.1455 7.59627 4.05055 8.01187 4.04598C8.28749 4.00867 8.56795 4.03233 8.83343 4.11529C9.0989 4.19825 9.34293 4.33848 9.54828 4.52608C9.75362 4.71368 9.91527 4.94408 10.0218 5.20101C10.1284 5.45793 10.1772 5.73511 10.1649 6.01298C10.1649 7.48298 8.36487 7.97898 8.51887 9.43898H7.19387C6.94487 7.77198 8.70387 7.10898 8.70387 6.11598ZM6.91587 11.196C6.92657 10.9771 7.01256 10.7686 7.15927 10.6058C7.30598 10.443 7.50442 10.3359 7.72103 10.3025C7.93763 10.2692 8.15911 10.3117 8.348 10.4228C8.53688 10.5339 8.68159 10.7069 8.75764 10.9124C8.83369 11.118 8.83641 11.3435 8.76535 11.5508C8.6943 11.7581 8.55381 11.9345 8.36767 12.0502C8.18152 12.1659 7.96114 12.2137 7.74379 12.1856C7.52645 12.1575 7.32547 12.0552 7.17487 11.896C7.08658 11.8029 7.0181 11.6929 6.97358 11.5725C6.92906 11.4522 6.90943 11.3241 6.91587 11.196Z" fill="#B2B2B2"/>
</svg>
